<svg width="18" height="19" viewBox="0 0 18 19" fill="none" xmlns="http://www.w3.org/2000/svg">
<path d="M1.5 9.5C1.5 6.67157 1.5 5.25736 2.37868 4.37868C3.25736 3.5 4.67157 3.5 7.5 3.5H10.5C13.3284 3.5 14.7426 3.5 15.6213 4.37868C16.5 5.25736 16.5 6.67157 16.5 9.5V11C16.5 13.8284 16.5 15.2426 15.6213 16.1213C14.7426 17 13.3284 17 10.5 17H7.5C4.67157 17 3.25736 17 2.37868 16.1213C1.5 15.2426 1.5 13.8284 1.5 11V9.5Z" stroke="#9A9A9A" stroke-width="1.5"/>
<path d="M5.25 3.5V2.375" stroke="#9A9A9A" stroke-width="1.5" stroke-linecap="round"/>
<path d="M12.75 3.5V2.375" stroke="#9A9A9A" stroke-width="1.5" stroke-linecap="round"/>
<path d="M1.875 7.25H16.125" stroke="#9A9A9A" stroke-width="1.5" stroke-linecap="round"/>
<path d="M13 13.25C13 13.3881 12.8881 13.5 12.75 13.5C12.6119 13.5 12.5 13.3881 12.5 13.25C12.5 13.1119 12.6119 13 12.75 13C12.8881 13 13 13.1119 13 13.25ZM13 10.25C13 10.3881 12.8881 10.5 12.75 10.5C12.6119 10.5 12.5 10.3881 12.5 10.25C12.5 10.1119 12.6119 10 12.75 10C12.8881 10 13 10.1119 13 10.25Z" fill="#1C274C" stroke="#9A9A9A"/>
<path d="M9.25 13.25C9.25 13.3881 9.13807 13.5 9 13.5C8.86193 13.5 8.75 13.3881 8.75 13.25C8.75 13.1119 8.86193 13 9 13C9.13807 13 9.25 13.1119 9.25 13.25ZM9.25 10.25C9.25 10.3881 9.13807 10.5 9 10.5C8.86193 10.5 8.75 10.3881 8.75 10.25C8.75 10.1119 8.86193 10 9 10C9.13807 10 9.25 10.1119 9.25 10.25Z" fill="#1C274C" stroke="#9A9A9A"/>
<path d="M6 13.25C6 13.6642 5.66421 14 5.25 14C4.83579 14 4.5 13.6642 4.5 13.25C4.5 12.8358 4.83579 12.5 5.25 12.5C5.66421 12.5 6 12.8358 6 13.25Z" fill="#1C274C"/>
<path d="M6 10.25C6 10.6642 5.66421 11 5.25 11C4.83579 11 4.5 10.6642 4.5 10.25C4.5 9.83579 4.83579 9.5 5.25 9.5C5.66421 9.5 6 9.83579 6 10.25Z" fill="#1C274C"/>
</svg>
