<svg width="18" height="18" viewBox="0 0 18 18" fill="none" xmlns="http://www.w3.org/2000/svg">
<path d="M10.2975 2.6326L11.6175 5.2726C11.7975 5.6401 12.2775 5.9926 12.6825 6.0601L15.075 6.4576C16.605 6.7126 16.965 7.8226 15.8625 8.9176L14.0025 10.7776C13.6875 11.0926 13.515 11.7001 13.6125 12.1351L14.145 14.4376C14.565 16.2601 13.5975 16.9651 11.985 16.0126L9.74249 14.6851C9.33749 14.4451 8.66999 14.4451 8.25749 14.6851L6.01499 16.0126C4.40999 16.9651 3.43499 16.2526 3.85499 14.4376L4.38749 12.1351C4.48499 11.7001 4.31249 11.0926 3.99749 10.7776L2.13749 8.9176C1.04249 7.8226 1.39499 6.7126 2.92499 6.4576L5.31749 6.0601C5.71499 5.9926 6.19499 5.6401 6.37499 5.2726L7.69499 2.6326C8.41499 1.2001 9.58499 1.2001 10.2975 2.6326Z" fill="#FFAB00"/>
</svg>
