<svg width="64" height="64" viewBox="0 0 64 64" fill="none" xmlns="http://www.w3.org/2000/svg">
<path fill-rule="evenodd" clip-rule="evenodd" d="M11.3333 24C11.3333 12.5861 20.5861 3.33334 32 3.33334C43.4139 3.33334 52.6667 12.5861 52.6667 24V40C52.6667 51.4139 43.4139 60.6667 32 60.6667C20.5861 60.6667 11.3333 51.4139 11.3333 40V24ZM32 7.33334C22.7953 7.33334 15.3333 14.7953 15.3333 24V40C15.3333 49.2048 22.7953 56.6667 32 56.6667C41.2047 56.6667 48.6667 49.2048 48.6667 40V24C48.6667 14.7953 41.2047 7.33334 32 7.33334ZM32 11.3333C33.1046 11.3333 34 12.2288 34 13.3333V21.3333C34 22.4379 33.1046 23.3333 32 23.3333C30.8954 23.3333 30 22.4379 30 21.3333V13.3333C30 12.2288 30.8954 11.3333 32 11.3333Z" fill="#072A18"/>
</svg>
