<svg width="48" height="48" viewBox="0 0 48 48" fill="none" xmlns="http://www.w3.org/2000/svg">
<g clip-path="url(#clip0_41_52730)">
<path d="M35.0853 7.74887C34.009 12.6995 33.5786 14.9596 32.6099 18.5112C31.6413 22.0628 31.1032 25.0762 29.9194 26.6906C29.0584 27.8744 27.6593 28.6278 26.1525 28.7354C24.7534 28.843 23.2467 28.843 21.8476 28.7354C20.3409 28.6278 18.9418 27.8744 18.0808 26.6906C16.8969 25.1838 16.2512 21.9551 15.3902 18.5112C14.5292 15.0673 13.9911 12.6995 12.9149 7.74887L11.3005 7.85649C10.6548 7.85649 10.1167 7.96412 9.57855 8.07174C9.57855 8.07174 10.2243 18.1883 10.5472 22.4933C10.87 27.0134 11.4081 34.5471 11.8386 40.3587C11.8386 40.3587 12.8073 40.4664 14.314 40.574C15.8207 40.6816 16.6817 40.6816 16.6817 40.6816C17.3274 38.0986 18.1884 34.6547 19.0494 33.148C19.5875 32.287 20.5561 31.7489 21.6324 31.7489C22.3857 31.6412 23.1391 31.6412 24.0001 31.6412C24.7534 31.6412 25.5068 31.6412 26.3678 31.7489C27.444 31.7489 28.4126 32.287 28.9508 33.148C29.9194 34.6547 30.6727 38.0986 31.3185 40.6816C31.3185 40.6816 32.0718 40.6816 33.6862 40.574C35.3005 40.4664 36.1615 40.3587 36.1615 40.3587C36.6996 34.6547 37.2377 27.0134 37.453 22.4933C37.7759 18.1883 38.4216 8.07174 38.4216 8.07174C37.8835 7.96412 37.3454 7.96412 36.6996 7.85649L35.0853 7.74887Z" fill="black"/>
<path d="M47.7848 13.7758C47.1391 7.31838 42.8342 6.0269 39.0673 5.38116C36.592 5.05829 34.1167 4.84304 31.6413 4.73542C29.7041 4.6278 25.2916 4.52017 24.0001 4.52017C22.7086 4.52017 18.1884 4.6278 16.3588 4.73542C13.7759 4.73542 11.3005 4.95067 8.82519 5.38116C5.05838 6.0269 0.753443 7.426 0.107703 13.7758C-0.107544 15.9282 -0.107544 18.0807 -0.107544 20.2332C-0.107544 23.139 0.107703 26.0448 0.538196 28.9507C0.753443 31.426 1.29156 33.7937 1.9373 36.2691C2.90591 39.0673 3.7669 39.9282 4.73551 40.6816C6.45748 41.8655 8.28708 42.5112 10.3319 42.8341C19.3723 43.8027 28.4126 43.8027 37.453 42.8341C39.4978 42.5112 41.3274 41.8655 43.0494 40.6816C44.1256 39.8206 44.9866 39.0673 45.8476 36.2691C46.4933 33.9013 47.0315 31.426 47.2467 28.9507C47.5696 26.0448 47.7848 23.139 47.8925 20.2332C48.0001 18.0807 47.8925 15.9282 47.7848 13.7758ZM45.4171 24.5381C45.3095 28.0897 44.7714 31.5336 43.9104 34.9776C43.5875 36.5919 42.7265 37.991 41.5427 39.1749C39.9283 40.4664 37.9911 41.2197 36.0539 41.3274C27.9821 42.1883 19.9104 42.1883 11.8386 41.3274C9.7938 41.2197 7.9642 40.4664 6.34985 39.1749C5.166 37.991 4.41264 36.5919 3.98214 34.9776C3.12116 31.5336 2.69066 28.0897 2.47542 24.5381C2.26017 20.9865 2.26017 17.3273 2.58304 13.7758C3.22878 9.68609 5.166 7.74887 9.47093 6.99551C11.8386 6.56502 14.314 6.34977 16.6817 6.24215C18.7265 6.13452 22.0629 6.0269 24.0001 6.0269C25.9373 6.0269 29.2736 6.0269 31.3185 6.24215C33.6862 6.34977 36.1615 6.56502 38.5292 6.99551C42.8342 7.74887 44.7714 9.79372 45.3095 13.7758C45.5247 17.3273 45.6324 20.9865 45.4171 24.5381Z" fill="black"/>
</g>
<defs>
<clipPath id="clip0_41_52730">
<rect width="48" height="48" fill="white"/>
</clipPath>
</defs>
</svg>
