<svg width="48" height="48" viewBox="0 0 48 48" fill="none" xmlns="http://www.w3.org/2000/svg">
<g clip-path="url(#clip0_41_52754)">
<path d="M24.0001 8.47202C10.7461 8.47202 6.10352e-05 15.424 6.10352e-05 23.996C6.10352e-05 32.574 10.7461 39.528 24.0001 39.528C37.2541 39.528 48.0001 32.576 48.0001 23.996C48.0001 15.416 37.2541 8.47202 24.0001 8.47202ZM24.0001 32.864C22.0281 32.864 20.4201 28.98 20.3201 24.094C22.7687 24.3084 25.2314 24.3084 27.6801 24.094C27.5801 28.978 25.9721 32.864 24.0001 32.864ZM20.5621 20.216C21.0981 16.762 22.4361 14.31 24.0001 14.31C25.5641 14.31 26.9001 16.762 27.4381 20.216C25.1506 20.4191 22.8496 20.4191 20.5621 20.216ZM24.0001 10.716C21.4261 10.716 19.2301 14.572 18.4201 19.954C13.5401 19.194 10.1341 17.458 10.1341 15.442C10.1341 12.722 16.3421 10.52 24.0001 10.52C31.6601 10.52 37.8661 12.724 37.8661 15.442C37.8661 17.458 34.4601 19.194 29.5801 19.954C28.7701 14.574 26.5741 10.718 24.0001 10.718V10.716ZM3.44006 23.416C3.44006 20.786 4.45406 18.316 6.21606 16.196C6.19806 16.344 6.18606 16.496 6.18606 16.648C6.18606 19.962 11.1561 22.788 18.0921 23.828C18.0861 24.068 18.0861 24.312 18.0861 24.556C18.0861 30.736 19.8181 35.966 22.2121 37.742C11.6921 37.108 3.44006 30.936 3.44006 23.416ZM25.7881 37.742C28.1821 35.966 29.9141 30.734 29.9141 24.556C29.9141 24.31 29.9101 24.07 29.9081 23.83C36.8401 22.79 41.8141 19.966 41.8141 16.648C41.8141 16.496 41.8021 16.344 41.7841 16.196C43.5461 18.322 44.5581 20.786 44.5581 23.416C44.5581 30.936 36.3081 37.108 25.7881 37.742Z" fill="black"/>
</g>
<defs>
<clipPath id="clip0_41_52754">
<rect width="48" height="48" fill="white"/>
</clipPath>
</defs>
</svg>
