<svg width="48" height="48" viewBox="0 0 48 48" fill="none" xmlns="http://www.w3.org/2000/svg">
<g clip-path="url(#clip0_41_52734)">
<path fill-rule="evenodd" clip-rule="evenodd" d="M8.38493 16.5C3.78681 16.5 -0.0764814 20.2959 0.0012129 24.8857C0.0774709 29.3901 3.81047 33 8.38547 33C10.3499 33 12.1592 32.3345 13.5903 31.218C15.0215 32.3343 16.8308 33 18.7954 33C20.7598 33 22.5691 32.3345 24.0002 31.218C25.4314 32.3343 27.2407 33 29.2052 33C31.1698 33 32.9791 32.3345 34.4101 31.218C35.8414 32.3343 37.6507 33 39.6152 33C44.1896 33 47.9227 29.3907 47.9989 24.8857C48.0766 20.2956 44.2132 16.5 39.6149 16.5C37.6667 16.5 35.8505 17.1813 34.4101 18.3156C32.9693 17.1813 31.153 16.5 29.2048 16.5C27.2566 16.5 25.4405 17.1813 23.9999 18.3156C22.5595 17.1813 20.7433 16.5 18.7951 16.5C16.8469 16.5 15.0307 17.1813 13.5901 18.3157C12.1495 17.1813 10.3332 16.5 8.38493 16.5ZM18.7954 31.1277C17.3558 31.1277 16.025 30.6662 14.9483 29.8848C16.0607 28.5101 16.7372 26.7768 16.7692 24.8857C16.8025 22.9149 16.1093 21.0906 14.9435 19.6503C16.0291 18.8497 17.3671 18.3723 18.7951 18.3723C20.2232 18.3723 21.5611 18.8497 22.6466 19.6501C21.4807 21.0906 20.7874 22.9152 20.8205 24.8859C20.8528 26.7768 21.5294 28.5102 22.6421 29.8849C21.5654 30.6663 20.2348 31.1277 18.7954 31.1277ZM14.8703 24.8546C14.8947 23.4153 14.4116 22.0724 13.5902 20.9862C12.7687 22.0724 12.2856 23.4153 12.31 24.8546C12.3335 26.2415 12.806 27.5196 13.5903 28.5552C14.3744 27.5196 14.8468 26.2416 14.8703 24.8546ZM10.4111 24.8857C10.3778 22.9149 11.0709 21.0906 12.2368 19.6503C11.1512 18.8497 9.81311 18.3723 8.38493 18.3723C4.83441 18.3723 1.84034 21.3243 1.9001 24.8546C1.95899 28.3337 4.84341 31.1277 8.38547 31.1277C9.82481 31.1277 11.1556 30.6663 12.2323 29.8848C11.1196 28.5101 10.4431 26.7768 10.4111 24.8857ZM27.179 24.8857C27.2125 22.9149 26.5193 21.0906 25.3534 19.6501C26.4388 18.8497 27.7768 18.3723 29.2048 18.3723C30.6329 18.3723 31.9711 18.8497 33.0568 19.6503C31.8908 21.0906 31.1977 22.9149 31.231 24.8857C31.2629 26.7768 31.9394 28.5101 33.0521 29.8848C31.9754 30.6663 30.6446 31.1277 29.2052 31.1277C27.7658 31.1277 26.435 30.6662 25.3582 29.8848C26.4707 28.5101 27.1471 26.7768 27.179 24.8857ZM33.1298 24.8546C33.1055 23.4153 33.5887 22.0722 34.4101 20.986C35.2316 22.0722 35.7146 23.4153 35.6902 24.8546C35.6666 26.2416 35.1941 27.5196 34.4101 28.5552C33.6259 27.5196 33.1534 26.2415 33.1298 24.8546ZM39.6152 31.1277C38.1757 31.1277 36.8449 30.6662 35.768 29.8848C36.8806 28.5102 37.5569 26.7769 37.589 24.8859C37.6226 22.9147 36.9295 21.0904 35.7635 19.6501C36.8489 18.8497 38.1869 18.3723 39.6149 18.3723C43.1657 18.3723 46.1599 21.324 46.1 24.8546C46.0411 28.3343 43.1567 31.1277 39.6152 31.1277ZM25.2802 24.8985C25.3045 23.4593 24.8215 22.1163 23.9999 21.0301C23.1785 22.1163 22.6955 23.4593 22.7198 24.8985C22.7434 26.2854 23.2159 27.5635 24.0001 28.5991C24.7841 27.5635 25.2566 26.2856 25.2802 24.8985Z" fill="black"/>
</g>
<defs>
<clipPath id="clip0_41_52734">
<rect width="48" height="48" fill="white"/>
</clipPath>
</defs>
</svg>
