<svg width="48" height="48" viewBox="0 0 48 48" fill="none" xmlns="http://www.w3.org/2000/svg">
<g clip-path="url(#clip0_41_52738)">
<path d="M24 48C30.4106 48 36.4374 45.5034 40.9705 40.9705C45.5035 36.4374 48.0001 30.4105 48.0001 24C48.0001 17.5895 45.5035 11.5626 40.9705 7.02953C36.4375 2.49647 30.4106 0 24 0C10.7663 0 6.10352e-05 10.7663 6.10352e-05 24C6.10352e-05 30.4105 2.49653 36.4374 7.02959 40.9705C11.5626 45.5034 17.5895 48 24 48Z" fill="black"/>
<path d="M0.830444 23.9999C0.830444 17.8113 3.24054 11.9929 7.61675 7.61668C11.993 3.24038 17.8113 0.830383 24 0.830383C30.1887 0.830383 36.0072 3.24038 40.3833 7.61668C44.7595 11.9929 47.1696 17.8112 47.1696 23.9999C47.1696 36.7758 36.7757 47.1696 24 47.1696C17.8113 47.1696 11.993 44.7595 7.61675 40.3833C3.24054 36.007 0.830444 30.1887 0.830444 23.9999Z" fill="white"/>
<path d="M24 1.78528C11.7313 1.78528 1.78534 11.7313 1.78534 24C1.78534 36.2686 11.7313 46.2147 24 46.2147C36.2687 46.2147 46.2147 36.2686 46.2147 24C46.2147 11.7313 36.2687 1.78528 24 1.78528Z" fill="black"/>
<path d="M24 38.1899C16.1632 38.1899 9.81 31.8368 9.81 23.9999C9.81 16.1631 16.1632 9.80994 24 9.80994C31.8368 9.80994 38.19 16.1631 38.19 23.9999C38.19 31.8368 31.8369 38.1899 24 38.1899Z" fill="white"/>
<path d="M10.7229 24H24V10.7229C16.6674 10.7229 10.7229 16.6674 10.7229 24ZM24 24V37.2772C31.3327 37.2772 37.2771 31.3327 37.2771 24H24Z" fill="black"/>
<path d="M13.5721 10.4611C13.1017 10.0039 12.3746 9.86609 11.692 10.2893C11.8224 9.9514 11.7692 9.6066 11.6999 9.41633C11.4059 8.8801 11.3032 8.81299 11.0609 8.60963C10.2763 7.9513 9.45065 8.51334 8.86011 9.21711L6.0069 12.6173L10.4921 16.381L13.501 12.7952C14.1885 11.9759 14.2948 11.1636 13.5721 10.4611ZM24.7432 8.84534L26.2836 4.76262V8.84534H27.4542V2.99814H25.6953L24.0955 7.18466H24.1121L22.5122 2.99814H20.7534V8.84534H21.924V4.76262L23.4644 8.84534H24.7432ZM40.4825 11.278L38.2785 14.3984L41.6954 12.7762L42.6001 13.8934L37.222 16.5005L36.1602 15.1787L38.2756 12.0856L38.2631 12.0701L34.7978 13.4962L33.7256 12.1828L37.3939 7.46428L38.2986 8.58151L36.0015 11.5865L39.5119 10.0794L40.4825 11.278Z" fill="white"/>
<path d="M9.48361 10.0587C9.68215 9.82198 10.1309 9.83171 10.4194 10.0738C10.7367 10.34 10.7375 10.7175 10.5244 10.9713L8.83 12.9905L7.76987 12.1009L9.48361 10.0587ZM12.4983 12.4407L10.7119 14.5697L9.59164 13.6297L11.3925 11.4834C11.5959 11.2411 12.0493 11.1705 12.3551 11.4272C12.7013 11.7175 12.7356 12.158 12.4983 12.4407Z" fill="black"/>
</g>
<defs>
<clipPath id="clip0_41_52738">
<rect width="48" height="48" fill="white"/>
</clipPath>
</defs>
</svg>
