<svg width="48" height="48" viewBox="0 0 48 48" fill="none" xmlns="http://www.w3.org/2000/svg">
<g clip-path="url(#clip0_41_52742)">
<path d="M24.0739 15.0277C10.9293 15.0277 0.369293 18.9784 0.369293 23.9261C0.369293 28.8369 11.0031 32.8246 24.0739 32.8246C37.1447 32.8246 47.7785 28.8369 47.7785 23.9261C47.8154 19.0523 37.1447 15.0277 24.0739 15.0277ZM24.0739 32.0492C11.5201 32.0492 1.36622 28.4308 1.36622 23.9261C1.36622 19.4584 11.557 15.8031 24.0739 15.8031C36.6278 15.8031 46.7816 19.4215 46.7816 23.9261C46.8185 28.4308 36.6278 32.0492 24.0739 32.0492ZM33.4154 25.7354C33.4154 25.7723 33.4154 25.8092 33.4154 25.8092C33.4154 25.8461 33.4893 25.8831 33.5262 25.92C33.5262 25.92 33.5631 25.9569 33.5262 25.9938C33.3785 26.3261 33.2308 26.5108 33.0462 26.7692C32.8616 27.0277 32.677 27.2123 32.4554 27.3969C32.1231 27.6923 31.6062 27.9877 31.2001 27.8031C31.0154 27.6923 30.9416 27.4708 30.9416 27.2492C30.9416 26.6954 31.2001 26.1046 31.6801 25.5138C32.2339 24.8123 32.8985 24.4431 33.3047 24.6646C33.7478 24.8492 33.637 25.3661 33.4154 25.7354ZM21.6739 22.0431C21.637 21.8215 21.7108 21.5631 21.9324 21.3784C22.0431 21.2677 22.1908 21.2677 22.3016 21.3415C22.4124 21.4154 22.3385 21.6369 22.2647 21.8215C22.1539 22.0061 21.9693 22.1538 21.7847 22.1538C21.7108 22.1169 21.6739 22.1169 21.6739 22.0431ZM24.0739 16.5046C11.9631 16.5046 2.1416 19.8646 2.1416 23.9631C2.1416 28.0246 11.9631 31.3846 24.0739 31.3846C36.1847 31.3846 46.0062 28.0246 46.0062 23.9261C46.0062 19.8277 36.1847 16.5046 24.0739 16.5046ZM12.8124 28.8369C11.5201 28.8369 10.3754 28.0615 10.2278 26.6584C10.1539 25.8831 10.3754 25.2184 10.8185 24.6277C11.1878 24.1108 11.8524 23.7046 12.4062 23.5938C12.5908 23.5569 12.8124 23.5938 12.9231 23.7046C13.0708 23.8892 13.0339 24.0738 12.8862 24.1846C12.4801 24.4061 11.9631 24.7754 11.7047 25.2554C11.4831 25.6615 11.4462 26.1784 11.7785 26.6215C12.2954 27.3969 13.7354 27.4338 15.1016 26.1784C15.4339 25.8831 15.7293 25.5877 16.0247 25.2184C16.6154 24.5538 16.8001 24.2954 17.6124 23.1877V23.1508C17.6124 23.1508 17.6124 23.1508 17.5754 23.1138C17.0585 23.1138 16.5785 23.2984 16.1354 23.6308C16.0247 23.7415 15.8401 23.7046 15.7293 23.5938C15.6554 23.4461 15.6924 23.2615 15.8401 23.1877C16.5416 22.6708 17.3539 22.5969 18.1293 22.4492C18.1293 22.4492 18.2031 22.4492 18.2401 22.3754C18.5724 21.9692 18.8308 21.5631 19.1631 21.1569C19.5324 20.7138 19.9754 20.3446 20.3078 20.0123C20.7878 19.6061 21.1201 19.4584 21.4154 19.2738C21.4893 19.2369 21.4154 19.1631 21.3785 19.1631C19.6062 18.8308 17.7601 18.3877 16.0247 19.0523C14.8062 19.4954 14.2893 20.4554 14.5478 21.12C14.7324 21.5631 15.3231 21.6369 15.9139 21.3784C16.3939 21.1569 16.8001 20.7877 17.1324 20.3077C17.317 20.0492 17.6493 20.2338 17.4647 20.6769C16.9478 21.8954 15.9508 22.8554 14.7693 22.8923C13.7354 22.9292 13.1078 22.1908 13.1078 21.2677C13.1078 19.4584 15.1385 18.24 17.2801 18.0554C19.8647 17.8338 22.3016 18.5354 24.8493 18.8308C26.8062 19.0523 28.6893 19.0892 30.6462 18.6092C30.8678 18.5723 31.0524 18.72 31.0154 18.9415C30.9785 19.2738 30.7201 19.6061 30.0924 19.9754C29.3539 20.3815 28.5785 20.4923 27.7662 20.4923C25.8093 20.4923 24.0001 19.7538 22.117 19.3477C22.117 19.4215 22.1539 19.5323 22.0801 19.5692C21.0462 20.3446 20.0862 21.12 19.4585 22.1908C19.4216 22.2277 19.4585 22.2277 19.4954 22.2277C20.0493 22.1908 20.5293 22.1908 21.0462 22.1538C21.1201 22.1538 21.1201 22.1169 21.1201 22.0431C21.0831 21.6738 21.1939 21.2308 21.5262 20.9354C21.8585 20.64 22.3016 20.6031 22.5601 20.8246C22.8924 21.0831 22.8554 21.5261 22.6708 21.8584C22.4862 22.1908 22.1908 22.3754 21.9324 22.4861C21.9324 22.4861 21.8585 22.4861 21.8954 22.56C21.8954 22.6338 22.3016 22.8554 22.3385 22.9292C22.3754 22.9661 22.3385 23.0769 22.3016 23.1138C22.2647 23.1508 22.1908 23.1877 22.117 23.1877C22.0431 23.1877 22.0062 23.1508 21.9324 23.1138C21.7478 23.0031 21.5262 22.8554 21.4154 22.6708C21.3785 22.5969 21.3416 22.5969 21.2308 22.5969C20.677 22.6338 19.8278 22.7077 19.237 22.7815C19.0893 22.7815 19.0893 22.8184 19.0524 22.8923C18.1293 24.4061 17.1324 26.0677 16.0247 27.1754C14.8431 28.5046 13.8462 28.8369 12.8124 28.8369ZM38.0308 21.3784C37.8462 21.6738 34.3754 26.9908 34.1539 27.5077C34.0801 27.6923 34.0801 27.8031 34.1539 27.9138C34.3385 28.1723 34.7447 28.0246 35.0031 27.84C35.7416 27.3231 36.2585 26.6954 36.8493 26.1415C36.8862 26.1046 36.9231 26.1046 36.9601 26.1415C37.0339 26.2154 37.1816 26.3261 37.2554 26.4C37.2924 26.4369 37.2924 26.4738 37.2554 26.5108C36.7016 27.2123 36.0739 27.84 35.4831 28.32C34.5601 29.0215 33.637 29.2061 33.157 28.7631C32.9724 28.5784 32.8985 28.3569 32.8985 28.1354C32.8985 28.0246 32.8247 28.0246 32.7878 28.0615C32.2339 28.6154 31.2739 29.2061 30.4247 28.7631C29.6862 28.3938 29.5385 27.5446 29.6862 26.8061C29.6862 26.8061 29.6862 26.6954 29.5754 26.7323C29.4278 26.8431 29.2431 26.9538 28.9847 27.0646C28.6893 27.1754 28.5416 27.2123 28.2462 27.2123C27.877 27.2123 27.5816 27.0646 27.3601 26.6954C27.2493 26.5108 27.1754 26.2154 27.1754 25.9938C27.1754 25.9569 27.1385 25.92 27.1016 25.9938C26.5108 26.88 25.957 27.7661 25.3662 28.6892C25.3293 28.7261 25.2924 28.7631 25.2554 28.7631C24.8862 28.7631 24.4801 28.7631 24.1108 28.7631C24.037 28.7631 24.0001 28.7261 24.037 28.6523C24.2585 28.2461 25.3662 26.6215 26.1416 25.2184C26.3631 24.8492 26.3262 24.6277 26.1785 24.5538C26.0308 24.4431 25.6985 24.5908 25.4031 24.8123C24.6647 25.3661 24.037 26.2523 23.7047 26.6584C23.5201 26.88 23.3354 27.2492 22.8554 27.7661C22.0801 28.6154 21.0462 29.0954 20.0862 28.7631C19.5324 28.5784 19.1631 28.1354 19.0154 27.6184C18.9785 27.5077 18.9416 27.4708 18.8678 27.5446C18.7201 27.7292 18.3878 28.0246 18.0924 28.2092C18.0554 28.2461 17.9816 28.2831 17.9078 28.2461C17.8339 28.2092 17.6493 27.9508 17.6124 27.84C17.5754 27.7661 17.6124 27.7292 17.6493 27.6923C18.0554 27.36 18.2401 27.1384 18.4247 26.9538C18.5354 26.8061 18.6462 26.6215 18.757 26.3261C18.9785 25.7354 19.5324 24.6277 20.6031 24.0369C21.0093 23.8154 21.4154 23.6677 21.8954 23.5938C22.0801 23.5569 22.2647 23.5938 22.3016 23.7415C22.3385 23.8154 22.3754 23.9631 22.4124 24.0369C22.4493 24.1108 22.4124 24.1477 22.3385 24.1846C21.7108 24.4431 21.0831 24.8123 20.6401 25.4031C20.1231 26.0677 20.0124 26.88 20.3447 27.3231C20.6031 27.6554 20.9724 27.7292 21.3785 27.5815C21.9693 27.3969 22.4493 26.88 22.7078 26.2523C22.9662 25.5877 23.0401 24.8492 22.8185 24.1477C22.7816 24.0369 22.8185 23.9261 22.8924 23.8892C23.0401 23.7784 23.2616 23.6677 23.2985 23.6308C23.4462 23.5569 23.5939 23.5938 23.6678 23.7046C23.8893 24 24.0001 24.4431 24.0001 24.9231C24.0001 25.0338 24.037 25.0338 24.1108 24.96C24.4801 24.5538 24.8493 24.1477 25.2185 23.8154C25.5878 23.52 26.0678 23.2984 26.4739 23.2984C27.0278 23.2984 27.3231 23.7046 27.2862 24.3692C27.2862 24.4431 27.3601 24.4431 27.397 24.4061C27.5816 24.1477 27.6924 24.0369 27.877 23.8892C28.2831 23.5569 28.6524 23.4092 29.0954 23.4461C29.6124 23.4831 30.0185 23.9631 29.9447 24.48C29.9078 24.8123 29.6862 25.1446 29.3908 25.2923C29.1324 25.44 28.8001 25.4031 28.5785 25.2184C28.3939 25.0708 28.357 24.8123 28.3939 24.5908C28.3939 24.5538 28.357 24.48 28.2831 24.5538C27.7662 25.0708 27.7293 25.7354 28.0616 26.0677C28.4308 26.4 28.9478 26.1784 29.3539 25.92C30.0924 25.44 30.6462 24.8123 31.2739 24.2954C31.717 23.9631 32.197 23.6677 32.7508 23.5938C33.0462 23.5569 33.3416 23.5569 33.637 23.7046C34.0431 23.8523 34.2647 24.1846 34.3016 24.48C34.3016 24.5538 34.3754 24.5908 34.4124 24.5169C34.7078 24.0369 36.4062 21.5261 36.5539 21.2677C36.5908 21.1938 36.6278 21.1569 36.7385 21.1569C37.1078 21.1569 37.5878 21.1569 37.9201 21.1569C38.0308 21.3046 38.0308 21.3415 38.0308 21.3784Z" fill="black"/>
</g>
<defs>
<clipPath id="clip0_41_52742">
<rect width="48" height="48" fill="white"/>
</clipPath>
</defs>
</svg>
