<svg width="48" height="48" viewBox="0 0 48 48" fill="none" xmlns="http://www.w3.org/2000/svg">
<g clip-path="url(#clip0_41_52746)">
<path d="M23.9546 36.3834C37.1901 36.3834 47.9092 30.879 47.9092 24.0966C47.9092 17.3141 37.1901 11.804 23.9546 11.804C10.7248 11.804 6.10352e-05 17.3084 6.10352e-05 24.0909C6.10352e-05 30.8734 10.7248 36.3834 23.9546 36.3834ZM28.4536 30.3451C28.0616 31.2653 27.3686 33.2478 25.7951 34.0317C25.3123 34.2589 24.7158 34.3782 24.1989 34.3953C24.0796 34.4123 24.0001 34.3953 23.9717 34.3953C19.5466 34.3953 15.4339 33.7931 11.9859 32.7366C11.9575 32.7195 11.8779 32.6911 11.8779 32.6911C11.5314 32.5832 11.3667 32.4355 11.3667 32.2537C11.3667 32.1003 11.4405 31.9811 11.5655 31.8618C11.6109 31.8163 11.6848 31.7538 11.7757 31.663C12.5596 30.9983 14.9795 29.2601 19.4727 27.5162C21.0633 26.9141 23.0401 26.1586 25.1134 25.7155C26.3404 25.4826 30.845 24.8066 28.4536 30.3451ZM40.5814 17.9673C40.6552 17.814 40.7802 17.6833 40.9904 17.6833C41.1096 17.6663 41.246 17.7003 41.4732 17.848C44.285 19.5806 45.9665 21.7448 45.9665 24.0909C45.9665 28.3342 40.5246 31.9697 32.7537 33.5659C32.2538 33.6738 31.9243 33.6738 31.805 33.5375C31.7312 33.4466 31.6971 33.3273 31.805 33.1626C31.8505 33.0717 31.913 32.9979 32.0152 32.8899C36.2528 27.8911 39.485 20.5122 40.3882 18.3706C40.445 18.1945 40.5132 18.0582 40.5814 17.9673ZM19.5295 17.8026C19.9215 16.8824 20.6145 14.8999 22.188 14.116C22.6708 13.8774 23.2673 13.7695 23.7842 13.7524C23.9035 13.7524 23.9944 13.7524 24.0228 13.7524C28.4308 13.7524 32.5492 14.3716 35.9915 15.4111C36.0199 15.4111 36.0995 15.4395 36.1279 15.4566C36.446 15.5645 36.6107 15.7122 36.6107 15.894C36.6107 16.0587 36.5198 16.1666 36.4119 16.2859C36.3665 16.3314 36.2926 16.4052 36.2017 16.4847C35.4008 17.1493 33.015 18.8876 28.5047 20.6087C26.9141 21.2279 24.9373 21.9664 22.864 22.4265C21.637 22.6708 17.138 23.3524 19.5295 17.8026ZM15.1896 14.6158C15.6895 14.5079 16.0815 14.5079 16.1837 14.6443C16.2576 14.7181 16.2917 14.8544 16.1837 15.0192C16.1383 15.1101 16.0758 15.1839 15.9849 15.3032C11.7416 20.302 8.51509 27.6809 7.6119 29.8054C7.53805 29.9588 7.47556 30.1065 7.41308 30.1974C7.32219 30.3508 7.2029 30.47 7.00409 30.4814C6.89616 30.4814 6.74846 30.453 6.5042 30.3167C3.69237 28.5841 1.95982 26.4199 1.95982 24.0738C1.98255 19.8476 7.42444 16.2064 15.1896 14.6158Z" fill="black"/>
<path d="M23.9546 11.804C10.7248 11.804 6.10352e-05 17.2914 6.10352e-05 24.0738C6.10352e-05 30.8563 10.7248 36.3437 23.9546 36.3437C37.1901 36.3437 47.9092 30.8393 47.9092 24.0738C47.9092 17.2914 37.1901 11.804 23.9546 11.804ZM40.6041 32.089C36.179 34.3555 30.2713 35.6109 23.9603 35.6109C17.6493 35.6109 11.753 34.3498 7.32787 32.089C3.06752 29.8963 0.732842 27.0618 0.732842 24.0852C0.732842 21.1086 3.07888 18.2684 7.33355 16.0757C11.7586 13.7922 17.6663 12.5538 23.9773 12.5538C30.2883 12.5538 36.1904 13.8035 40.6211 16.0757C44.8872 18.2684 47.2218 21.1086 47.2218 24.0795C47.2218 27.0504 44.8701 29.8963 40.6041 32.089Z" fill="black"/>
</g>
<defs>
<clipPath id="clip0_41_52746">
<rect width="48" height="48" fill="white"/>
</clipPath>
</defs>
</svg>
