<svg width="48" height="48" viewBox="0 0 48 48" fill="none" xmlns="http://www.w3.org/2000/svg">
<g clip-path="url(#clip0_41_52750)">
<path d="M17.4989 17.76C15.9687 17.76 14.4864 18.2477 13.488 19.2231C12.4896 20.1965 11.9866 21.5443 11.9866 23.2666C11.9866 26.9069 14.6784 28.7904 17.8042 28.7904C19.8452 28.7904 21.9936 27.6615 22.8288 25.5341H19.7837C19.5706 26.208 18.409 26.5613 17.8388 26.5613C17.138 26.5613 16.5485 26.3347 16.0762 25.8797C15.6039 25.4285 15.36 24.793 15.3389 23.9789H22.992C23.0669 20.1082 21.0509 17.7562 17.4989 17.76ZM15.2141 22.2087C15.2084 21.456 15.4196 20.8647 15.8458 20.4288C16.272 19.9911 16.8135 19.7722 17.4701 19.7722C18.0826 19.7722 18.6048 19.9795 19.033 20.3923C19.4592 20.8071 19.682 21.4119 19.7031 22.2087H15.2141Z" fill="black"/>
<path d="M29.8253 17.7619C28.2951 17.7619 26.8129 18.2496 25.8145 19.225C24.8161 20.2023 24.313 21.5482 24.313 23.2723C24.313 26.9127 27.001 28.7962 30.1287 28.7962C32.1697 28.7962 34.3181 27.6672 35.1533 25.5399H32.1082C31.8951 26.2138 30.7335 26.5671 30.1633 26.5671C29.4625 26.5671 28.873 26.3405 28.4007 25.8855C27.9284 25.4343 27.6845 24.7987 27.6634 23.9847H35.3165C35.3876 20.112 33.3754 17.7619 29.8253 17.7619ZM27.5348 22.2125C27.5271 21.4599 27.7402 20.8685 28.1665 20.4327C28.5927 19.9949 29.1341 19.776 29.7908 19.776C30.4052 19.776 30.9255 19.9834 31.3537 20.3962C31.7799 20.809 32.0026 21.4157 32.0237 22.2125H27.5348Z" fill="black"/>
<path d="M6.87749 23.3914C6.87749 25.1059 6.69509 25.6819 5.41829 25.7088C3.36965 25.751 3.83045 24.313 3.75941 22.8595H0.172852C0.180532 26.0314 1.46117 28.9786 4.99397 28.9075C8.61509 28.8346 10.3969 27.1738 10.3969 23.2013V13.8662H6.87749V23.3914Z" fill="black"/>
<path d="M43.1712 17.5872C41.8445 17.5872 40.5389 18.263 39.7191 19.4611V17.9347L36.77 17.9904V32.3289L40.032 32.3846V27.1507C40.9997 28.1069 42.0135 28.7789 43.321 28.7789C46.1607 28.7789 47.7524 26.6477 47.7524 23.1264C47.7524 20.0294 45.9591 17.5872 43.1712 17.5872ZM43.6877 25.6627C43.1712 26.1773 42.9178 26.375 42.1421 26.375C40.5908 26.375 39.9668 24.6374 39.9111 23.0093C39.8727 21.8112 40.4698 19.9277 42.0826 19.9277C42.8679 19.9277 43.1328 20.1907 43.6628 20.7168C44.1965 21.2448 44.4653 22.0531 44.4653 23.1437C44.4653 24.3091 44.2042 25.152 43.6877 25.6627Z" fill="black"/>
</g>
<defs>
<clipPath id="clip0_41_52750">
<rect width="48" height="48" fill="white"/>
</clipPath>
</defs>
</svg>
