<svg width="48" height="48" viewBox="0 0 48 48" fill="none" xmlns="http://www.w3.org/2000/svg">
<path fill-rule="evenodd" clip-rule="evenodd" d="M24.0001 45.8824C11.9149 45.8824 2.11772 36.0849 2.11772 24C2.11772 11.9149 11.9149 2.11768 24.0001 2.11768C36.0855 2.11768 45.8824 11.9149 45.8824 24C45.8824 36.0849 36.0855 45.8824 24.0001 45.8824Z" fill="black"/>
<path fill-rule="evenodd" clip-rule="evenodd" d="M24.006 27.3055L6.23998 34.6588C9.98324 40.9485 16.7665 44.7864 24.0817 44.7486C31.3783 44.7296 38.1426 40.8531 41.8478 34.545L24.006 27.3055ZM20.9286 22.1122L23.7598 3.35828C16.4632 3.45315 9.73696 7.38642 6.08883 13.7138C2.42177 20.0411 2.38367 27.8314 5.97503 34.1969L20.9286 22.1122ZM26.989 22.361L42.1135 34.0654C45.6289 27.7002 45.5527 19.9666 41.8859 13.6774C40.0931 10.5851 37.5304 8.00955 34.447 6.20149C31.3636 4.39343 27.8646 3.41443 24.2907 3.35977L26.989 22.361Z" fill="#EFF2F5"/>
</svg>
