<svg width="48" height="48" viewBox="0 0 48 48" fill="none" xmlns="http://www.w3.org/2000/svg">
<g clip-path="url(#clip0_41_52758)">
<path d="M23.9818 0.337006C10.9481 0.337006 0.318848 10.9662 0.318848 24C0.318848 37.0338 10.9481 47.663 23.9818 47.663C37.0156 47.663 47.6448 37.0338 47.6448 24C47.6357 10.9662 37.0065 0.337006 23.9818 0.337006ZM23.9818 44.9306C12.4509 44.9306 3.0513 35.5309 3.0513 24C3.0513 12.4691 12.4509 3.06945 23.9818 3.06945C35.5128 3.06945 44.9124 12.4691 44.9124 24C44.9124 35.5309 35.5037 44.9306 23.9818 44.9306Z" fill="black"/>
<path d="M17.2054 39.9939C10.9845 37.3435 6.61258 31.1681 6.61258 24C6.61258 22.1784 6.89493 20.4205 7.42321 18.7628L17.2054 39.9939Z" fill="black"/>
<path d="M28.8001 40.6861C27.2699 41.1324 25.6486 41.3692 23.9727 41.3692C22.2968 41.3692 20.6847 41.1324 19.1545 40.6861L23.9727 29.4376L28.8001 40.6861Z" fill="black"/>
<path d="M40.5405 18.7719C41.0688 20.4205 41.3511 22.1784 41.3511 24C41.3511 31.1681 36.9701 37.3434 30.7583 39.9848L40.5405 18.7719Z" fill="black"/>
<path d="M32.7348 9.00797C34.857 10.2558 36.6877 11.9317 38.1177 13.9264L29.465 32.3157L26.5503 25.2934H21.4133L18.4987 32.3157L9.84598 13.9264C11.276 11.9317 13.1067 10.2467 15.2289 9.00797L21.2949 23.1712H26.6687L32.7348 9.00797Z" fill="black"/>
<path d="M23.9818 6.63074C25.676 6.63074 27.3245 6.87666 28.8729 7.33207L23.9818 19.1089L19.0908 7.33207C20.6391 6.87666 22.2786 6.63074 23.9818 6.63074Z" fill="black"/>
</g>
<defs>
<clipPath id="clip0_41_52758">
<rect width="48" height="48" fill="white"/>
</clipPath>
</defs>
</svg>
